<?xml version="1.0" encoding="UTF-8" standalone="no"?>
<!-- Created with Inkscape (http://www.inkscape.org/) -->

<svg
   width="550mm"
   height="450mm"
   viewBox="0 0 550 450"
   version="1.1"
   id="svg1"
   xml:space="preserve"
   inkscape:version="1.3 (0e150ed6c4, 2023-07-21)"
   sodipodi:docname="maça cartoon.svg"
   inkscape:export-filename="maça_cartoon.svg"
   inkscape:export-xdpi="96"
   inkscape:export-ydpi="96"
   xmlns:inkscape="http://www.inkscape.org/namespaces/inkscape"
   xmlns:sodipodi="http://sodipodi.sourceforge.net/DTD/sodipodi-0.dtd"
   xmlns="http://www.w3.org/2000/svg"
   xmlns:svg="http://www.w3.org/2000/svg"><sodipodi:namedview
     id="namedview1"
     pagecolor="#ffffff"
     bordercolor="#000000"
     borderopacity="0.25"
     inkscape:showpageshadow="2"
     inkscape:pageopacity="0.0"
     inkscape:pagecheckerboard="0"
     inkscape:deskcolor="#d1d1d1"
     inkscape:document-units="mm"
     inkscape:zoom="0.12236355"
     inkscape:cx="923.47763"
     inkscape:cy="870.35723"
     inkscape:window-width="1366"
     inkscape:window-height="705"
     inkscape:window-x="-8"
     inkscape:window-y="-8"
     inkscape:window-maximized="1"
     inkscape:current-layer="layer2" /><defs
     id="defs1" /><g
     inkscape:label="bitmap"
     inkscape:groupmode="layer"
     id="layer1" /><g
     inkscape:groupmode="layer"
     id="layer2"
     inkscape:label="vetor"><rect
       style="opacity:1;fill:#ffffff;fill-opacity:1;stroke:none;stroke-width:0.500062;stroke-opacity:1"
       id="rect1"
       width="914.64124"
       height="681.11584"
       x="-149.19681"
       y="-80.004082" /><g
       id="g1"
       transform="matrix(2.1602615,0,0,2.0646185,50.234518,-11.153328)"><path
         style="opacity:1;fill:#44240e;fill-opacity:1;stroke:none;stroke-width:0.777121;paint-order:fill markers stroke"
         d="m 115.60658,84.090767 c -2.75368,-12.918828 1.38103,-26.486579 8.79885,-40.363616 1.46418,-4.662436 -6.85074,-5.974902 -16.45001,-6.847399 -5.7999,2.968469 -8.864222,7.483173 -9.563955,13.334409 -3.233634,12.42058 1.886985,23.826484 4.569895,35.318164 6.60886,0.750353 10.11066,0.69065 14.55802,0 z"
         id="path3"
         sodipodi:nodetypes="ccccccc" /><path
         style="opacity:0.5;fill:#000000;fill-opacity:0;stroke:#000000;stroke-width:0.799999;paint-order:fill markers stroke"
         d="M 27.521236,111.6139 Z"
         id="path2" /><path
         style="opacity:1;fill:#dd0012;fill-opacity:1;stroke:none;stroke-width:0.799999;paint-order:fill markers stroke"
         d="m 51.909852,78.285052 c -6.068968,3.28099 -2.578659,-1.47143 -17.555847,15.08487 0.429712,3.16761 -4.358938,6.09264 -3.710438,10.478788 -1.598632,7.20481 -2.057818,11.96513 -1.845616,17.35911 2.518136,11.63967 3.383655,18.24567 6.11583,26.59842 9.131141,17.32758 15.942386,31.54775 23.046318,39.75289 8.512678,7.20904 9.256169,10.09516 18.664148,10.498 10.11163,1.70236 12.478009,-0.016 18.860895,-2.04236 l 4.949898,-3.05791 -3.038701,-4.96912 13.899741,8.69877 11.98058,2.67567 c 8.3843,-1.76329 11.61954,-2.88064 15.01929,-5.64084 8.0444,-4.55214 14.88675,-11.50835 19.87645,-22.16989 5.98586,-9.04735 11.6126,-18.84067 12.50194,-29.92663 5.7442,-4.64486 3.15952,-14.02588 5.22019,-17.20077 2.18951,-7.38996 -1.19437,-15.86106 -2.834,-23.25102 -1.16118,-7.727528 -7.05144,-15.918908 -15.31674,-19.586948 -5.95148,-3.28394 -7.74607,-6.30511 -18.3667,-6.78756 -6.72913,-1.71184 -16.13981,1.1215 -25.9267,6.54444 l -6.11584,1.9112 C 91.711266,73.042952 71.422848,76.827132 51.909852,78.285052 Z"
         id="path1"
         sodipodi:nodetypes="cccccccccccccccccccccc" /><path
         style="opacity:1;fill:#008000;fill-opacity:1;stroke:none;stroke-width:0.799999;paint-order:fill markers stroke"
         d="m 108.08846,81.892457 c -6.32805,-9.03453 -2.09261,-25.760679 -11.723872,-32.091713 -6.948399,-7.236785 -18.485348,-8.007763 -30.86583,-5.92471 -6.47871,0.845068 -13.813185,3.658434 -20.545366,6.784748 4.128003,1.229582 8.857516,2.189337 10.989383,3.917954 l 6.880307,6.88031 c 2.172036,6.33967 5.533692,11.039161 11.467182,16.818533 10.442971,0.207394 14.531644,-0.726996 17.880461,1.90324 6.222056,-1.047453 8.047315,1.553235 15.917735,1.711638 z"
         id="path4"
         sodipodi:nodetypes="ccccccccc" /><path
         style="fill:#ffffff;fill-opacity:1;stroke:none;stroke-width:0.779457;stroke-dasharray:none;stroke-opacity:1;paint-order:fill markers stroke"
         d="m 123.59564,127.33757 c 1.21387,-4.40673 2.18659,-9.90032 0.79345,-15.69866 -0.95268,-2.86257 -1.43119,-7.75533 -7.88841,-8.96476 1.40885,-0.61395 -3.33859,0.1627 -5.87867,5.6084 -1.24566,2.6622 -1.8713,5.94442 -2.60149,9.12209 0.24258,2.31378 -2.41995,9.0049 1.79063,10.74379 5.88321,0.49854 10.04461,0.11949 13.78449,-0.81086 z"
         id="path11"
         sodipodi:nodetypes="ccccccc" /><path
         style="fill:none;fill-opacity:0.501961;stroke:none;stroke-width:0.779457;stroke-dasharray:none;stroke-opacity:1;paint-order:fill markers stroke"
         d="m 121.25384,104.84802 c 0.11145,-0.58096 0.25094,-1.27405 0.54056,-2.56769 v 0"
         id="path12"
         sodipodi:nodetypes="ccc" /><path
         style="fill:none;fill-opacity:0.501961;stroke:none;stroke-width:0.779457;stroke-dasharray:none;stroke-opacity:1;paint-order:fill markers stroke"
         d="m 118.95303,103.35566 0.27028,-3.513688"
         id="path13"
         sodipodi:nodetypes="cc" /><path
         style="fill:none;fill-opacity:0.501961;stroke:none;stroke-width:0.713378;stroke-dasharray:none;stroke-opacity:1;paint-order:fill markers stroke"
         d="m 116.84383,102.99578 -1.83356,-4.554623 v 0"
         id="path14"
         sodipodi:nodetypes="ccc" /><path
         style="fill:none;fill-opacity:0.501961;stroke:none;stroke-width:0.779457;stroke-dasharray:none;stroke-opacity:1;paint-order:fill markers stroke"
         d="m 114.26923,103.93251 c -0.10011,-0.25255 -0.50077,-1.40676 -0.86004,-2.43677"
         id="path15"
         sodipodi:nodetypes="cc" /><ellipse
         style="fill:#0000eb;fill-opacity:1;stroke:none;stroke-width:0.044;stroke-dasharray:none;stroke-opacity:1;paint-order:fill markers stroke"
         id="ellipse15"
         cx="-113.0132"
         cy="121.13598"
         rx="3.8810463"
         ry="7.2973113"
         transform="scale(-1,1)" /><path
         style="opacity:0.83;fill:#ffe5e5;fill-opacity:1;stroke:none;stroke-width:0.615566;stroke-dasharray:none;stroke-opacity:1;paint-order:fill markers stroke"
         d="M 87.133102,140.70106 Z"
         id="path18" /><path
         style="opacity:0.64;fill:#450000;fill-opacity:1;stroke:none;stroke-width:0.199643;stroke-dasharray:none;stroke-opacity:1;paint-order:fill markers stroke"
         d="m 89.803025,140.09214 -2.20151,-0.14053 -0.843132,1.54575 3.559874,3.23199 3.981453,1.35838 6.18296,1.35837 6.55768,-0.32787 6.88557,-2.24835 2.06099,-1.17101 -1.17101,-2.29519 -5.80824,-0.23422 z"
         id="path19" /><path
         style="opacity:0.83;fill:#ffe5e5;fill-opacity:1;stroke:none;stroke-width:0.615566;stroke-dasharray:none;stroke-opacity:1;paint-order:fill markers stroke"
         d="M 89.334612,141.35684 Z"
         id="path20" /><path
         style="fill:#ffffff;fill-opacity:1;stroke:none;stroke-width:0.199643;stroke-dasharray:none;stroke-opacity:1;paint-order:fill markers stroke"
         d="m 99.217975,142.01259 -6.979248,-0.98365 -2.997795,0.18737 -0.468399,1.31153 2.388856,1.45206 3.419374,0.37474 4.449852,0.0936 c 1.857475,0 3.741635,0 5.480345,0 2.45732,0.15613 4.56094,0.31229 6.79189,0.46842 l 3.79409,-1.59258 -1.0305,-0.98366 z"
         id="path21"
         sodipodi:nodetypes="cccccccccccc" /><ellipse
         style="opacity:1;fill:#340000;fill-opacity:1;stroke:none;stroke-width:0.074349;stroke-dasharray:none;stroke-opacity:1;paint-order:fill markers stroke"
         id="path22"
         cx="100.91119"
         cy="129.10135"
         rx="2.565603"
         ry="2.6149416" /><path
         style="fill:#ffffff;fill-opacity:1;stroke:none;stroke-width:0.779457;stroke-dasharray:none;paint-order:fill markers stroke"
         d="m 77.73651,128.10205 c -1.21387,-4.40673 -2.18659,-9.90032 -0.79345,-15.69866 0.95268,-2.86257 1.43119,-7.75533 7.88841,-8.96476 -1.40885,-0.61395 3.33859,0.1627 5.87867,5.6084 1.24566,2.6622 1.8713,5.94442 2.60149,9.12209 -0.24258,2.31378 2.41995,9.0049 -1.79063,10.74379 -5.88321,0.49854 -10.04461,0.11949 -13.78449,-0.81086 z"
         id="path31"
         sodipodi:nodetypes="ccccccc" /><g
         id="g35"
         transform="matrix(-1,0,0,1,201.33215,0.76447881)"
         style="fill:#0000eb;fill-opacity:1;stroke:none"><path
           style="opacity:1;fill:#0000eb;fill-opacity:1;stroke:none;stroke-width:0.779457;stroke-dasharray:none;paint-order:fill markers stroke"
           d="m 121.25384,104.84802 c 0.11145,-0.58096 0.25094,-1.27405 0.54056,-2.56769 v 0"
           id="path32"
           sodipodi:nodetypes="ccc" /><path
           style="opacity:1;fill:#0000eb;fill-opacity:1;stroke:none;stroke-width:0.779457;stroke-dasharray:none;paint-order:fill markers stroke"
           d="m 118.95303,103.35566 0.27028,-3.513688"
           id="path33"
           sodipodi:nodetypes="cc" /><path
           style="opacity:1;fill:#0000eb;fill-opacity:1;stroke:none;stroke-width:0.713378;stroke-dasharray:none;paint-order:fill markers stroke"
           d="m 116.84383,102.99578 -1.83356,-4.554623 v 0"
           id="path34"
           sodipodi:nodetypes="ccc" /><path
           style="opacity:1;fill:#0000eb;fill-opacity:1;stroke:none;stroke-width:0.779457;stroke-dasharray:none;paint-order:fill markers stroke"
           d="m 114.26923,103.93251 c -0.10011,-0.25255 -0.50077,-1.40676 -0.86004,-2.43677"
           id="path35"
           sodipodi:nodetypes="cc" /><ellipse
           style="opacity:1;fill:#0000eb;fill-opacity:1;stroke:none;stroke-width:0.044;stroke-dasharray:none;paint-order:fill markers stroke"
           id="ellipse35"
           cx="-113.0132"
           cy="121.13598"
           rx="3.8810463"
           ry="7.2973113"
           transform="scale(-1,1)" /></g></g></g></svg>
