<?xml version="1.0" encoding="UTF-8" standalone="no"?>
<!-- Created with Inkscape (http://www.inkscape.org/) -->

<svg
   width="210mm"
   height="297mm"
   viewBox="0 0 210 297"
   version="1.1"
   id="svg1"
   xml:space="preserve"
   inkscape:version="1.3 (0e150ed6c4, 2023-07-21)"
   sodipodi:docname="trofeu.svg"
   xmlns:inkscape="http://www.inkscape.org/namespaces/inkscape"
   xmlns:sodipodi="http://sodipodi.sourceforge.net/DTD/sodipodi-0.dtd"
   xmlns="http://www.w3.org/2000/svg"
   xmlns:svg="http://www.w3.org/2000/svg"><sodipodi:namedview
     id="namedview1"
     pagecolor="#ffffff"
     bordercolor="#000000"
     borderopacity="0.25"
     inkscape:showpageshadow="2"
     inkscape:pageopacity="0.0"
     inkscape:pagecheckerboard="0"
     inkscape:deskcolor="#d1d1d1"
     inkscape:document-units="mm"
     inkscape:zoom="1.3843855"
     inkscape:cx="385.36953"
     inkscape:cy="493.35968"
     inkscape:window-width="1722"
     inkscape:window-height="1020"
     inkscape:window-x="160"
     inkscape:window-y="0"
     inkscape:window-maximized="0"
     inkscape:current-layer="layer2" /><defs
     id="defs1" /><g
     inkscape:label="bitmap"
     inkscape:groupmode="layer"
     id="layer1"
     sodipodi:insensitive="true" /><g
     inkscape:groupmode="layer"
     id="layer2"
     inkscape:label="vetor"><g
       id="g10"><path
         style="opacity:1;fill:#784421;fill-opacity:0.915294;stroke:#000000;stroke-width:0.239;stroke-opacity:0.970588;paint-order:fill markers stroke"
         d="m 93.457529,174.03088 0.123548,20.15831 35.233593,-0.0116 -0.16793,-20.06756 z"
         id="path1"
         sodipodi:nodetypes="ccccc" /><path
         style="opacity:0.5;fill:none;fill-opacity:0.915294;stroke:#000000;stroke-width:0.239;stroke-opacity:0.970588;paint-order:fill markers stroke"
         d="M 98.617758,181.5637 Z"
         id="path2" /><path
         style="opacity:1;fill:#1a1a1a;fill-opacity:0.915294;stroke:#000000;stroke-width:0.239;stroke-opacity:0.970588;paint-order:fill markers stroke"
         d="m 98.417183,181.56331 0.03379,5.06783 25.305337,-0.0338 0.0338,-5.03405 z"
         id="path3"
         sodipodi:nodetypes="ccccc" /><path
         style="opacity:1;fill:#ffff00;fill-opacity:0.915294;stroke:#000000;stroke-width:0.239;stroke-opacity:0.970588;paint-order:fill markers stroke"
         d="m 98.450968,173.79265 0.135141,-2.90556 1.216279,-1.89198 8.649092,-5.27054 5.06782,0.13514"
         id="path4" /><path
         style="opacity:1;fill:#ffff00;fill-opacity:0.915294;stroke:#000000;stroke-width:0.239;stroke-opacity:0.970588;paint-order:fill markers stroke"
         d="m 113.44763,163.86381 c 3.52583,1.85006 6.63225,3.82594 9.25723,5.94625 l 1.01357,1.55413 c 0.0225,0.90095 0.0156,2.39345 -0.10133,2.73663 l -0.10136,-0.0338 -25.001271,0.0676 v -0.27028"
         id="path5"
         sodipodi:nodetypes="ccccccc" /><path
         style="opacity:1;fill:#ffff00;fill-opacity:0.915294;stroke:#000000;stroke-width:0.239;stroke-opacity:0.970588;paint-order:fill markers stroke"
         d="m 108.55598,163.69401 -2.00675,-15.83904 2.89068,0.76448 c 1.16812,0.21161 1.9777,0.12444 2.77124,0.0239 l 2.15009,-0.38224 1.14672,-0.35835 -1.98287,15.98239 z"
         id="path6"
         sodipodi:nodetypes="cccccccc" /><path
         style="opacity:1;fill:#ffff00;fill-opacity:0.985882;stroke:#000000;stroke-width:0.239;stroke-opacity:0.970588;paint-order:fill markers stroke"
         d="m 106.35811,147.73552 c -3.22068,-0.71167 -5.07505,-3.38741 -7.358111,-5.44691 l -4.873553,-8.79151 c -2.235931,-4.48866 -3.264779,-9.49463 -4.682432,-14.33398 L 86.625,101.29343 85.71718,85.430502 l 50.37084,0.114403 c 0.18039,5.52801 -0.0321,10.943778 -0.74328,16.217045 l -2.36498,15.87919 c -1.25882,5.21798 -2.63723,10.36421 -4.52726,15.20347 l -4.12184,7.63553 c -1.52481,1.79339 -2.8586,3.85421 -4.79754,5.06782 -1.07841,0.96565 -2.60464,1.66261 -4.12183,2.36499 l -3.64883,0.87842 c -1.64727,-0.14638 -3.20726,-0.17638 -5.40435,-1.05585 z"
         id="path7"
         sodipodi:nodetypes="ccccccccccccccc" /><path
         style="opacity:1;fill:#f9f9f9;fill-opacity:0.971765;stroke:#000000;stroke-width:0.239;stroke-opacity:0.970588;paint-order:fill markers stroke"
         d="m 108.51905,125.81723 -0.13514,-18.6496 -4.93269,1.95956 v -4.72997 l 9.52752,-3.71641 h 0.54056 l 0.0676,25.20399 z"
         id="path8" /><path
         style="opacity:1;fill:#ffff00;fill-opacity:1;stroke:#000000;stroke-width:0.239;stroke-opacity:0.970588;paint-order:fill markers stroke"
         d="m 124.65552,140.20646 c 6.24353,-2.65683 12.02266,-6.32804 17.51389,-10.06469 4.98638,-3.90606 8.39139,-8.2987 11.75736,-12.70335 3.06214,-4.82028 4.35934,-9.93621 5.52443,-15.1359 0.18381,-2.359517 0.79098,-4.539765 -0.24569,-7.019192 -0.19059,-2.807272 -2.54524,-5.410703 -4.87331,-8.522147 -1.79122,-1.141603 -3.56975,-2.314935 -5.6084,-2.837981 -1.40916,-0.408286 -2.88559,-0.951117 -4.05426,-0.878425 -2.10541,-0.127573 -4.16101,-0.08082 -6.01382,0.675712 l -3.10826,1.35142 -0.27029,16.419753 c 1.55413,0.65242 3.10827,1.4991 4.6624,1.55414 l 2.22984,0.0676 c 1.38755,-0.21617 2.50689,-0.61115 3.5137,-1.08114 1.06751,-0.83338 1.98759,-1.66675 2.29741,-2.500127 0.54674,-0.833376 0.70275,-1.666752 0.87842,-2.500128 v -1.486561 h -4.86511 l -0.54057,1.95956 c -0.67705,0.402749 -1.42944,0.654807 -2.29741,0.675709 l -2.90555,-0.743281 c -0.79046,-0.671458 -1.41604,-1.672661 -1.82442,-3.108267 -0.14453,-1.30112 0.0481,-2.46738 0.54056,-3.513693 l 1.419,-1.41899 c 1.27007,-0.69319 2.43076,-1.167648 3.44612,-1.35142 l 2.77041,-0.06757 c 1.52333,0.123203 2.92595,0.729251 4.32454,1.351421 1.34711,0.901808 2.33632,1.875198 3.37856,2.837981 l 1.54628,2.915182 c 0.19354,1.242561 0.62395,2.568374 0.76448,3.750726 0.15093,1.930348 -0.38359,3.789028 -0.67337,5.719378 -1.01773,3.05469 -2.30417,6.0377 -3.88962,9.09239 -1.69211,2.33669 -3.17996,4.73175 -5.27968,6.95198 l -8.02702,7.07143 c -3.24861,2.13523 -6.50674,4.24664 -10.12934,5.44689 z"
         id="path9"
         sodipodi:nodetypes="cccccccccccccccccccccccccccccccccccc" /><path
         style="opacity:1;fill:#ffff00;fill-opacity:0.915294;stroke:#000000;stroke-width:0.239;stroke-opacity:0.970588;paint-order:fill markers stroke"
         d="m 97.75772,140.37741 -7.740346,-3.05791 c -4.945976,-2.19902 -8.934115,-4.97274 -12.613899,-7.93147 -2.60447,-2.01192 -5.069724,-4.26746 -7.166988,-7.16699 -2.007199,-2.85035 -3.908087,-5.82473 -5.160233,-9.55598 -1.325518,-4.06373 -1.678478,-8.0059 -2.006756,-11.94498 0.370316,-3.452436 1.254838,-6.819268 2.388996,-9.890447 l 3.535713,-4.347973 c 1.971155,-1.41493 3.942997,-2.829075 6.78475,-3.249036 1.285913,-0.188937 2.956553,-0.158032 4.682432,-0.09556 l 4.300193,1.146718 1.720078,0.955598 c -1.048205,5.038801 -0.08782,10.877916 -0.02389,16.38851 -1.770756,0.92013 -2.779199,1.16265 -4.276303,1.6723 l -3.249036,0.0956 c -1.411109,-0.87266 -2.851704,-1.3915 -4.204631,-2.96235 -0.690399,-0.749242 -0.99148,-1.609717 -1.242279,-2.484559 l -0.382239,-2.293437 h 5.064673 c -0.01909,0.628184 -0.03431,1.254706 0.382239,1.696187 L 79.69691,98.14 c 1.177606,-0.09846 2.383544,-0.111916 3.440154,-0.57336 l 1.815637,-1.720077 0.66892,-3.057914 c -0.324176,-1.041252 -0.671795,-2.079154 -1.433399,-3.057916 -0.862652,-0.588496 -1.722335,-1.18392 -2.771235,-1.337837 -1.349771,-0.224993 -2.728346,-0.377977 -4.204634,-0.286679 -1.024092,0.246361 -2.049465,0.531441 -3.631274,1.242277 l -2.962354,2.866795 c -0.628574,1.242278 -1.271967,2.484556 -1.528958,3.726834 -0.627731,1.411065 -0.619987,2.928042 -0.907818,4.395757 l 0.238901,5.63803 1.863415,6.73697 2.484557,4.58687 3.726833,4.58687 c 2.056402,1.95711 3.975865,4.05116 6.45029,5.59025 l 6.498069,4.01352 4.730213,2.03064 z"
         id="path10"
         sodipodi:nodetypes="ccccccccccccccccccccccccccccccccccccccc" /></g></g></svg>
